M48
; DRILL file {KiCad (6.0.7)} date Wed Sep  4 15:34:49 2024
; FORMAT={-:-/ absolute / inch / decimal}
; #@! TF.CreationDate,2024-09-04T15:34:49-05:00
; #@! TF.GenerationSoftware,Kicad,Pcbnew,(6.0.7)
; #@! TF.FileFunction,Plated,1,2,PTH
FMAT,2
INCH
; #@! TA.AperFunction,Plated,PTH,ComponentDrill
T1C0.0098
; #@! TA.AperFunction,Plated,PTH,ViaDrill
T2C0.0157
; #@! TA.AperFunction,Plated,PTH,ComponentDrill
T3C0.0157
; #@! TA.AperFunction,Plated,PTH,ComponentDrill
T4C0.0236
; #@! TA.AperFunction,Plated,PTH,ComponentDrill
T5C0.0295
; #@! TA.AperFunction,Plated,PTH,ComponentDrill
T6C0.0320
; #@! TA.AperFunction,Plated,PTH,ComponentDrill
T7C0.0350
; #@! TA.AperFunction,Plated,PTH,ComponentDrill
T8C0.0394
%
G90
G05
T1
X6.8799Y-5.011
X6.8799Y-5.0504
T2
X3.6063Y-3.326
X3.6299Y-3.2472
X4.245Y-2.9003
X4.3012Y-4.8831
X4.3012Y-5.0602
X4.311Y-4.135
X4.4291Y-4.2728
X4.4524Y-2.7354
X4.5079Y-4.135
X4.5276Y-2.7276
X4.5768Y-4.8142
X4.6063Y-4.2827
X4.6161Y-2.6193
X4.6555Y-4.9323
X5.4823Y-4.4185
X5.6693Y-2.4283
X5.8169Y-4.4185
X6.0394Y-4.7591
X6.1024Y-4.8299
X6.2283Y-4.578
X6.3465Y-4.6409
X6.4016Y-4.515
X6.5512Y-4.5228
X6.624Y-4.135
X6.7224Y-4.9815
X6.7717Y-4.322
X6.8012Y-4.135
X6.8406Y-4.9618
X6.8406Y-5.0996
X6.9055Y-5.1882
X6.9193Y-5.0996
X6.9291Y-4.322
X7.0709Y-5.1843
X7.5827Y-3.2
X7.6433Y-4.1449
T3
X4.312Y-5.2266
X4.312Y-5.2797
X4.3455Y-5.2266
X4.3455Y-5.2797
X4.3789Y-5.2266
X4.3789Y-5.2797
X4.4124Y-5.2266
X4.4124Y-5.2797
X4.4459Y-5.2266
X4.4459Y-5.2797
X4.4793Y-5.2266
X4.4793Y-5.2797
X4.5128Y-5.2266
X4.5128Y-5.2797
X4.5463Y-5.2266
X4.5463Y-5.2797
T5
X5.6102Y-4.3024
X5.689Y-4.3024
T7
X6.6929Y-5.3496
X6.811Y-5.3496
X6.9291Y-5.3496
T8
X3.4257Y-3.2428
X3.4449Y-4.2157
X3.4964Y-3.1721
X3.5156Y-4.2865
X3.5671Y-3.1014
X3.5863Y-4.3572
X3.6378Y-3.0307
X3.657Y-4.4279
X4.2196Y-3.4481
X4.2196Y-3.9481
X4.3196Y-3.4481
X4.3196Y-3.9481
X4.4196Y-3.4481
X4.4196Y-3.9481
X4.5196Y-3.4481
X4.5196Y-3.9481
X4.6196Y-3.4481
X4.6196Y-3.9481
X4.7196Y-3.4481
X4.7196Y-3.9481
X4.8196Y-3.4481
X4.8196Y-3.9481
X4.9196Y-3.4481
X4.9196Y-3.9481
X5.4913Y-2.2846
X5.4961Y-5.1803
X5.5913Y-2.2846
X5.5961Y-5.1803
X5.6913Y-2.2846
X5.6961Y-5.1803
X5.7913Y-2.2846
X5.7961Y-5.1803
X6.4243Y-3.4481
X6.4243Y-3.9481
X6.5243Y-3.4481
X6.5243Y-3.9481
X6.6243Y-3.4481
X6.6243Y-3.9481
X6.7243Y-3.4481
X6.7243Y-3.9481
X6.8243Y-3.4481
X6.8243Y-3.9481
X6.9243Y-3.4481
X6.9243Y-3.9481
X7.0243Y-3.4481
X7.0243Y-3.9481
X7.1243Y-3.4481
X7.1243Y-3.9481
X7.6304Y-3.039
X7.6449Y-4.432
X7.7011Y-3.1098
X7.7156Y-4.3613
X7.7718Y-3.1805
X7.7863Y-4.2906
X7.8425Y-3.2512
X7.8571Y-4.2199
T4
G00X4.2589Y-5.2356
M15
G01X4.2589Y-5.2947
M16
G05
G00X4.2589Y-5.3825
M15
G01X4.2589Y-5.414
M16
G05
G00X4.5994Y-5.2356
M15
G01X4.5994Y-5.2947
M16
G05
G00X4.5994Y-5.3825
M15
G01X4.5994Y-5.414
M16
G05
T6
G00X6.565Y-5.3046
M15
G01X6.565Y-5.3946
M16
G05
G00X7.0571Y-5.3046
M15
G01X7.0571Y-5.3946
M16
G05
T0
M30
