M48
; DRILL file {KiCad (6.0.7)} date Wed Sep  4 15:34:49 2024
; FORMAT={-:-/ absolute / inch / decimal}
; #@! TF.CreationDate,2024-09-04T15:34:49-05:00
; #@! TF.GenerationSoftware,Kicad,Pcbnew,(6.0.7)
; #@! TF.FileFunction,NonPlated,1,2,NPTH
FMAT,2
INCH
; #@! TA.AperFunction,NonPlated,NPTH,ComponentDrill
T1C0.0320
; #@! TA.AperFunction,NonPlated,NPTH,ComponentDrill
T2C0.0390
; #@! TA.AperFunction,NonPlated,NPTH,ComponentDrill
T3C0.0935
; #@! TA.AperFunction,NonPlated,NPTH,ComponentDrill
T4C0.0984
; #@! TA.AperFunction,NonPlated,NPTH,ComponentDrill
T5C0.1063
%
G90
G05
T1
X6.565Y-5.3946
X7.0571Y-5.3046
X7.0571Y-5.3946
T2
X4.6728Y-2.7854
X4.7294Y-2.842
X4.8425Y-2.6723
T3
X4.6834Y-2.69
X4.7718Y-2.6016
X4.8248Y-2.8314
X4.9132Y-2.743
T4
X3.0064Y-3.8747
X3.0323Y-3.5388
X3.9529Y-4.8212
X3.9788Y-2.5922
X4.9449Y-5.2492
X5.0039Y-2.2157
X6.2835Y-5.2492
X6.3425Y-2.2157
X7.3039Y-4.8705
X7.3345Y-2.6457
X8.2504Y-3.924
X8.281Y-3.5922
T5
X3.0064Y-3.8747
X3.0323Y-3.5388
X3.9529Y-4.8212
X3.9788Y-2.5922
X4.9449Y-5.2492
X5.0039Y-2.2157
X6.2835Y-5.2492
X6.3425Y-2.2157
X7.3039Y-4.8705
X7.3345Y-2.6457
X8.2504Y-3.924
X8.281Y-3.5922
T0
M30
