%TF.GenerationSoftware,KiCad,Pcbnew,(6.0.7)*%
%TF.CreationDate,2024-09-04T15:34:51-05:00*%
%TF.ProjectId,MainBoard,4d61696e-426f-4617-9264-2e6b69636164,rev?*%
%TF.SameCoordinates,Original*%
%TF.FileFunction,Soldermask,Top*%
%TF.FilePolarity,Negative*%
%FSLAX46Y46*%
G04 Gerber Fmt 4.6, Leading zero omitted, Abs format (unit mm)*
G04 Created by KiCad (PCBNEW (6.0.7)) date 2024-09-04 15:34:51*
%MOMM*%
%LPD*%
G01*
G04 APERTURE LIST*
G04 Aperture macros list*
%AMRoundRect*
0 Rectangle with rounded corners*
0 $1 Rounding radius*
0 $2 $3 $4 $5 $6 $7 $8 $9 X,Y pos of 4 corners*
0 Add a 4 corners polygon primitive as box body*
4,1,4,$2,$3,$4,$5,$6,$7,$8,$9,$2,$3,0*
0 Add four circle primitives for the rounded corners*
1,1,$1+$1,$2,$3*
1,1,$1+$1,$4,$5*
1,1,$1+$1,$6,$7*
1,1,$1+$1,$8,$9*
0 Add four rect primitives between the rounded corners*
20,1,$1+$1,$2,$3,$4,$5,0*
20,1,$1+$1,$4,$5,$6,$7,0*
20,1,$1+$1,$6,$7,$8,$9,0*
20,1,$1+$1,$8,$9,$2,$3,0*%
%AMHorizOval*
0 Thick line with rounded ends*
0 $1 width*
0 $2 $3 position (X,Y) of the first rounded end (center of the circle)*
0 $4 $5 position (X,Y) of the second rounded end (center of the circle)*
0 Add line between two ends*
20,1,$1,$2,$3,$4,$5,0*
0 Add two circle primitives to create the rounded ends*
1,1,$1,$2,$3*
1,1,$1,$4,$5*%
%AMRotRect*
0 Rectangle, with rotation*
0 The origin of the aperture is its center*
0 $1 length*
0 $2 width*
0 $3 Rotation angle, in degrees counterclockwise*
0 Add horizontal line*
21,1,$1,$2,0,0,$3*%
%AMFreePoly0*
4,1,14,0.354215,0.088284,0.450784,-0.008285,0.462500,-0.036569,0.462499,-0.060000,0.450784,-0.088284,0.422500,-0.100000,-0.422500,-0.100000,-0.450784,-0.088284,-0.462499,-0.060000,-0.462499,0.060000,-0.450784,0.088284,-0.422500,0.100000,0.325931,0.100000,0.354215,0.088284,0.354215,0.088284,$1*%
%AMFreePoly1*
4,1,14,0.450784,0.088284,0.462499,0.060000,0.462500,0.036569,0.450784,0.008285,0.354215,-0.088284,0.325931,-0.100000,-0.422500,-0.100000,-0.450784,-0.088284,-0.462499,-0.060000,-0.462499,0.060000,-0.450784,0.088284,-0.422500,0.100000,0.422500,0.100000,0.450784,0.088284,0.450784,0.088284,$1*%
%AMFreePoly2*
4,1,14,0.088284,0.450784,0.100000,0.422500,0.100000,-0.422500,0.088284,-0.450784,0.060000,-0.462499,-0.060000,-0.462499,-0.088284,-0.450784,-0.100000,-0.422500,-0.100000,0.325931,-0.088284,0.354215,0.008285,0.450784,0.036569,0.462500,0.060000,0.462499,0.088284,0.450784,0.088284,0.450784,$1*%
%AMFreePoly3*
4,1,14,-0.008285,0.450784,0.088284,0.354215,0.100000,0.325931,0.100000,-0.422500,0.088284,-0.450784,0.060000,-0.462499,-0.060000,-0.462499,-0.088284,-0.450784,-0.100000,-0.422500,-0.100000,0.422500,-0.088284,0.450784,-0.060000,0.462499,-0.036569,0.462500,-0.008285,0.450784,-0.008285,0.450784,$1*%
%AMFreePoly4*
4,1,14,0.450784,0.088284,0.462499,0.060000,0.462499,-0.060000,0.450784,-0.088284,0.422500,-0.100000,-0.325931,-0.100000,-0.354215,-0.088284,-0.450784,0.008285,-0.462500,0.036569,-0.462499,0.060000,-0.450784,0.088284,-0.422500,0.100000,0.422500,0.100000,0.450784,0.088284,0.450784,0.088284,$1*%
%AMFreePoly5*
4,1,14,0.450784,0.088284,0.462499,0.060000,0.462499,-0.060000,0.450784,-0.088284,0.422500,-0.100000,-0.422500,-0.100000,-0.450784,-0.088284,-0.462499,-0.060000,-0.462500,-0.036569,-0.450784,-0.008285,-0.354215,0.088284,-0.325931,0.100000,0.422500,0.100000,0.450784,0.088284,0.450784,0.088284,$1*%
%AMFreePoly6*
4,1,14,0.088284,0.450784,0.100000,0.422500,0.100000,-0.325931,0.088284,-0.354215,-0.008285,-0.450784,-0.036569,-0.462500,-0.060000,-0.462499,-0.088284,-0.450784,-0.100000,-0.422500,-0.100000,0.422500,-0.088284,0.450784,-0.060000,0.462499,0.060000,0.462499,0.088284,0.450784,0.088284,0.450784,$1*%
%AMFreePoly7*
4,1,14,0.088284,0.450784,0.100000,0.422500,0.100000,-0.422500,0.088284,-0.450784,0.060000,-0.462499,0.036569,-0.462500,0.008285,-0.450784,-0.088284,-0.354215,-0.100000,-0.325931,-0.100000,0.422500,-0.088284,0.450784,-0.060000,0.462499,0.060000,0.462499,0.088284,0.450784,0.088284,0.450784,$1*%
G04 Aperture macros list end*
%ADD10C,2.700000*%
%ADD11C,2.500000*%
%ADD12C,2.374900*%
%ADD13C,0.990600*%
%ADD14C,0.787400*%
%ADD15RoundRect,0.135000X0.185000X-0.135000X0.185000X0.135000X-0.185000X0.135000X-0.185000X-0.135000X0*%
%ADD16RoundRect,0.135000X-0.185000X0.135000X-0.185000X-0.135000X0.185000X-0.135000X0.185000X0.135000X0*%
%ADD17R,0.500000X0.250000*%
%ADD18R,0.900000X1.600000*%
%ADD19R,1.700000X1.700000*%
%ADD20C,1.700000*%
%ADD21RoundRect,0.135000X-0.135000X-0.185000X0.135000X-0.185000X0.135000X0.185000X-0.135000X0.185000X0*%
%ADD22RoundRect,0.150000X-0.512500X-0.150000X0.512500X-0.150000X0.512500X0.150000X-0.512500X0.150000X0*%
%ADD23RotRect,1.700000X1.700000X45.000000*%
%ADD24HorizOval,1.700000X0.000000X0.000000X0.000000X0.000000X0*%
%ADD25RoundRect,0.218750X-0.218750X-0.256250X0.218750X-0.256250X0.218750X0.256250X-0.218750X0.256250X0*%
%ADD26RoundRect,0.135000X-0.226274X-0.035355X-0.035355X-0.226274X0.226274X0.035355X0.035355X0.226274X0*%
%ADD27R,0.900000X0.800000*%
%ADD28RoundRect,0.250000X0.350000X0.625000X-0.350000X0.625000X-0.350000X-0.625000X0.350000X-0.625000X0*%
%ADD29O,1.200000X1.750000*%
%ADD30RotRect,1.700000X1.700000X315.000000*%
%ADD31HorizOval,1.700000X0.000000X0.000000X0.000000X0.000000X0*%
%ADD32RoundRect,0.225000X-0.250000X0.225000X-0.250000X-0.225000X0.250000X-0.225000X0.250000X0.225000X0*%
%ADD33FreePoly0,315.000000*%
%ADD34RoundRect,0.050000X-0.327037X0.256326X0.256326X-0.327037X0.327037X-0.256326X-0.256326X0.327037X0*%
%ADD35FreePoly1,315.000000*%
%ADD36FreePoly2,315.000000*%
%ADD37RoundRect,0.050000X-0.327037X-0.256326X-0.256326X-0.327037X0.327037X0.256326X0.256326X0.327037X0*%
%ADD38FreePoly3,315.000000*%
%ADD39FreePoly4,315.000000*%
%ADD40FreePoly5,315.000000*%
%ADD41FreePoly6,315.000000*%
%ADD42FreePoly7,315.000000*%
%ADD43C,0.812800*%
%ADD44C,1.397000*%
%ADD45O,1.320800X3.606800*%
%ADD46RoundRect,0.218750X-0.381250X0.218750X-0.381250X-0.218750X0.381250X-0.218750X0.381250X0.218750X0*%
%ADD47RotRect,1.700000X1.700000X225.000000*%
%ADD48HorizOval,1.700000X0.000000X0.000000X0.000000X0.000000X0*%
%ADD49RoundRect,0.225000X0.225000X0.250000X-0.225000X0.250000X-0.225000X-0.250000X0.225000X-0.250000X0*%
%ADD50RoundRect,0.225000X-0.225000X-0.250000X0.225000X-0.250000X0.225000X0.250000X-0.225000X0.250000X0*%
%ADD51C,0.700000*%
%ADD52O,0.900000X1.700000*%
%ADD53O,0.900000X2.400000*%
%ADD54RoundRect,0.135000X-0.035355X0.226274X-0.226274X0.035355X0.035355X-0.226274X0.226274X-0.035355X0*%
%ADD55RoundRect,0.135000X0.135000X0.185000X-0.135000X0.185000X-0.135000X-0.185000X0.135000X-0.185000X0*%
%ADD56O,1.700000X1.700000*%
%ADD57RotRect,1.700000X1.700000X135.000000*%
%ADD58HorizOval,1.700000X0.000000X0.000000X0.000000X0.000000X0*%
%ADD59RoundRect,0.140000X-0.021213X0.219203X-0.219203X0.021213X0.021213X-0.219203X0.219203X-0.021213X0*%
G04 APERTURE END LIST*
D10*
%TO.C,H9*%
X209560660Y-99669087D03*
%TD*%
D11*
%TO.C,*%
X159600000Y-133329999D03*
%TD*%
%TO.C,*%
X100404699Y-122459572D03*
%TD*%
D12*
%TO.C,J7*%
X122550867Y-71917429D03*
D13*
X122999880Y-67876314D03*
X120126198Y-72186837D03*
D12*
X121203829Y-66080263D03*
X118958765Y-68325327D03*
X124795931Y-69672365D03*
D13*
X118689357Y-70749996D03*
D14*
X121652842Y-68325327D03*
X122550867Y-69223352D03*
X120754816Y-69223352D03*
X121652842Y-70121378D03*
X119856791Y-70121378D03*
X120754816Y-71019403D03*
%TD*%
D10*
%TO.C,H6*%
X127100000Y-56280001D03*
%TD*%
D15*
%TO.C,R15*%
X111387500Y-121990000D03*
X111387500Y-120970000D03*
%TD*%
D10*
%TO.C,H10*%
X185519029Y-123710718D03*
%TD*%
D16*
%TO.C,R5*%
X176000000Y-107770000D03*
X176000000Y-108790000D03*
%TD*%
D17*
%TO.C,U5*%
X173800000Y-127030000D03*
X173800000Y-127530000D03*
X173800000Y-128030000D03*
X173800000Y-128530000D03*
X175700000Y-128530000D03*
X175700000Y-128030000D03*
X175700000Y-127530000D03*
X175700000Y-127030000D03*
D18*
X174750000Y-127780000D03*
%TD*%
D19*
%TO.C,U3*%
X107177500Y-100282500D03*
D20*
X109717500Y-100282500D03*
X112257500Y-100282500D03*
X114797500Y-100282500D03*
X117337500Y-100282500D03*
X119877500Y-100282500D03*
X122417500Y-100282500D03*
X124957500Y-100282500D03*
X124957500Y-87582500D03*
X122417500Y-87582500D03*
X119877500Y-87582500D03*
X117337500Y-87582500D03*
X114797500Y-87582500D03*
X112257500Y-87582500D03*
X109717500Y-87582500D03*
X107177500Y-87582500D03*
%TD*%
D10*
%TO.C,H8*%
X186295301Y-67200428D03*
%TD*%
%TO.C,H3*%
X101062059Y-65843068D03*
%TD*%
D21*
%TO.C,R10*%
X106490000Y-106030000D03*
X107510000Y-106030000D03*
%TD*%
D22*
%TO.C,U4*%
X111250000Y-123280000D03*
X111250000Y-124230000D03*
X111250000Y-125180000D03*
X113525000Y-125180000D03*
X113525000Y-123280000D03*
%TD*%
D16*
%TO.C,R12*%
X112250000Y-84020000D03*
X112250000Y-85040000D03*
%TD*%
D23*
%TO.C,J1*%
X87500000Y-107080000D03*
D24*
X89296051Y-108876051D03*
X91092102Y-110672102D03*
X92888154Y-112468154D03*
%TD*%
D25*
%TO.C,D1*%
X112850000Y-121230000D03*
X114425000Y-121230000D03*
%TD*%
D16*
%TO.C,R3*%
X172000000Y-107770000D03*
X172000000Y-108790000D03*
%TD*%
D26*
%TO.C,R1*%
X110952549Y-72230324D03*
X111673797Y-72951572D03*
%TD*%
D11*
%TO.C,*%
X210336932Y-91242059D03*
%TD*%
%TO.C,*%
X127100000Y-56280001D03*
%TD*%
D10*
%TO.C,H5*%
X161100001Y-56280001D03*
%TD*%
D27*
%TO.C,Q1*%
X171950000Y-105980000D03*
X171950000Y-104080000D03*
X169550000Y-105030000D03*
%TD*%
D21*
%TO.C,R11*%
X106740000Y-103280000D03*
X107760000Y-103280000D03*
%TD*%
D28*
%TO.C,J8*%
X144500000Y-109280000D03*
D29*
X142500000Y-109280000D03*
%TD*%
D21*
%TO.C,R9*%
X103490000Y-100280000D03*
X104510000Y-100280000D03*
%TD*%
D10*
%TO.C,H1*%
X76363068Y-98417941D03*
%TD*%
D30*
%TO.C,J2*%
X92400000Y-76980000D03*
D31*
X90603949Y-78776051D03*
X88807898Y-80572102D03*
X87011846Y-82368154D03*
%TD*%
D27*
%TO.C,Q3*%
X175950000Y-105980000D03*
X175950000Y-104080000D03*
X173550000Y-105030000D03*
%TD*%
D10*
%TO.C,H2*%
X100404699Y-122459572D03*
%TD*%
D32*
%TO.C,C5*%
X178300000Y-130105000D03*
X178300000Y-131655000D03*
%TD*%
D33*
%TO.C,U1*%
X110084575Y-74233204D03*
D34*
X109801732Y-74516047D03*
X109518889Y-74798889D03*
X109236047Y-75081732D03*
D35*
X108953204Y-75364575D03*
D36*
X108953204Y-76195425D03*
D37*
X109236047Y-76478268D03*
X109518889Y-76761111D03*
X109801732Y-77043953D03*
D38*
X110084575Y-77326796D03*
D39*
X110915425Y-77326796D03*
D34*
X111198268Y-77043953D03*
X111481111Y-76761111D03*
X111763953Y-76478268D03*
D40*
X112046796Y-76195425D03*
D41*
X112046796Y-75364575D03*
D37*
X111763953Y-75081732D03*
X111481111Y-74798889D03*
X111198268Y-74516047D03*
D42*
X110915425Y-74233204D03*
%TD*%
D43*
%TO.C,SW1*%
X179249999Y-137023000D03*
X166749999Y-137023000D03*
X179249999Y-134737000D03*
D44*
X170000000Y-135880000D03*
X172999999Y-135880000D03*
X175999998Y-135880000D03*
D45*
X166749999Y-135880000D03*
X179249999Y-135880000D03*
%TD*%
D16*
%TO.C,R19*%
X144250000Y-112220000D03*
X144250000Y-113240000D03*
%TD*%
%TO.C,R16*%
X175650000Y-124890000D03*
X175650000Y-125910000D03*
%TD*%
D21*
%TO.C,R18*%
X140240000Y-112230000D03*
X141260000Y-112230000D03*
%TD*%
D46*
%TO.C,L1*%
X177650000Y-126587500D03*
X177650000Y-128712500D03*
%TD*%
D32*
%TO.C,C3*%
X111137500Y-126955000D03*
X111137500Y-128505000D03*
%TD*%
D16*
%TO.C,R13*%
X107250000Y-83770000D03*
X107250000Y-84790000D03*
%TD*%
D11*
%TO.C,*%
X185519029Y-123710718D03*
%TD*%
D47*
%TO.C,J4*%
X199200000Y-82580000D03*
D48*
X197403949Y-80783949D03*
X195607898Y-78987898D03*
X193811846Y-77191846D03*
%TD*%
D11*
%TO.C,*%
X161100001Y-56280001D03*
%TD*%
D10*
%TO.C,H11*%
X159600000Y-133329999D03*
%TD*%
D16*
%TO.C,R7*%
X109750000Y-84020000D03*
X109750000Y-85040000D03*
%TD*%
%TO.C,R8*%
X114750000Y-84029999D03*
X114750000Y-85049999D03*
%TD*%
D11*
%TO.C,*%
X125599999Y-133329999D03*
%TD*%
D16*
%TO.C,R20*%
X142500000Y-112220000D03*
X142500000Y-113240000D03*
%TD*%
D19*
%TO.C,U2*%
X163177500Y-100282500D03*
D20*
X165717500Y-100282500D03*
X168257500Y-100282500D03*
X170797500Y-100282500D03*
X173337500Y-100282500D03*
X175877500Y-100282500D03*
X178417500Y-100282500D03*
X180957500Y-100282500D03*
X180957500Y-87582500D03*
X178417500Y-87582500D03*
X175877500Y-87582500D03*
X173337500Y-87582500D03*
X170797500Y-87582500D03*
X168257500Y-87582500D03*
X165717500Y-87582500D03*
X163177500Y-87582500D03*
%TD*%
D27*
%TO.C,Q2*%
X113450000Y-105980000D03*
X113450000Y-104080000D03*
X111050000Y-105030000D03*
%TD*%
D49*
%TO.C,C4*%
X172174999Y-127650000D03*
X170624999Y-127650000D03*
%TD*%
D16*
%TO.C,R4*%
X113500000Y-107520000D03*
X113500000Y-108540000D03*
%TD*%
D27*
%TO.C,Q4*%
X117950000Y-105980000D03*
X117950000Y-104080000D03*
X115550000Y-105030000D03*
%TD*%
D10*
%TO.C,H12*%
X125599999Y-133329999D03*
%TD*%
%TO.C,H4*%
X77020428Y-89884699D03*
%TD*%
D11*
%TO.C,*%
X209560660Y-99669087D03*
%TD*%
%TO.C,*%
X101062059Y-65843068D03*
%TD*%
D50*
%TO.C,C2*%
X115362500Y-125230000D03*
X116912500Y-125230000D03*
%TD*%
D51*
%TO.C,P1*%
X109525000Y-132755000D03*
X110375000Y-132755000D03*
X111225000Y-132755000D03*
X112075000Y-132755000D03*
X112925000Y-132755000D03*
X113775000Y-132755000D03*
X114625000Y-132755000D03*
X115475000Y-132755000D03*
X115475000Y-134105000D03*
X114625000Y-134105000D03*
X113775000Y-134105000D03*
X112925000Y-134105000D03*
X112075000Y-134105000D03*
X111225000Y-134105000D03*
X110375000Y-134105000D03*
X109525000Y-134105000D03*
D52*
X108175000Y-137115000D03*
D53*
X108175000Y-133735000D03*
X116825000Y-133735000D03*
D52*
X116825000Y-137115000D03*
%TD*%
D54*
%TO.C,R2*%
X113132205Y-72953341D03*
X112410957Y-73674589D03*
%TD*%
D32*
%TO.C,C6*%
X176800000Y-130125000D03*
X176800000Y-131675000D03*
%TD*%
D55*
%TO.C,R17*%
X146510000Y-112230000D03*
X145490000Y-112230000D03*
%TD*%
D11*
%TO.C,*%
X186295301Y-67200428D03*
%TD*%
D19*
%TO.C,J3*%
X147100000Y-58030000D03*
D56*
X144560000Y-58030000D03*
X142020000Y-58030000D03*
X139480000Y-58030000D03*
%TD*%
D57*
%TO.C,J5*%
X194181088Y-112573786D03*
D58*
X195977139Y-110777735D03*
X197773190Y-108981684D03*
X199569242Y-107185632D03*
%TD*%
D11*
%TO.C,*%
X77020428Y-89884699D03*
%TD*%
D19*
%TO.C,J6*%
X139600000Y-131580000D03*
D56*
X142140000Y-131580000D03*
X144680000Y-131580000D03*
X147220000Y-131580000D03*
%TD*%
D11*
%TO.C,*%
X76363068Y-98417941D03*
%TD*%
D10*
%TO.C,H7*%
X210336932Y-91242059D03*
%TD*%
D16*
%TO.C,R6*%
X118000000Y-107520000D03*
X118000000Y-108540000D03*
%TD*%
D21*
%TO.C,R14*%
X115127500Y-123230000D03*
X116147500Y-123230000D03*
%TD*%
D59*
%TO.C,C1*%
X109015076Y-73474832D03*
X108336254Y-74153654D03*
%TD*%
M02*
