%TF.GenerationSoftware,KiCad,Pcbnew,(6.0.7)*%
%TF.CreationDate,2024-09-04T15:34:51-05:00*%
%TF.ProjectId,MainBoard,4d61696e-426f-4617-9264-2e6b69636164,rev?*%
%TF.SameCoordinates,Original*%
%TF.FileFunction,Soldermask,Bot*%
%TF.FilePolarity,Negative*%
%FSLAX46Y46*%
G04 Gerber Fmt 4.6, Leading zero omitted, Abs format (unit mm)*
G04 Created by KiCad (PCBNEW (6.0.7)) date 2024-09-04 15:34:51*
%MOMM*%
%LPD*%
G01*
G04 APERTURE LIST*
G04 Aperture macros list*
%AMRoundRect*
0 Rectangle with rounded corners*
0 $1 Rounding radius*
0 $2 $3 $4 $5 $6 $7 $8 $9 X,Y pos of 4 corners*
0 Add a 4 corners polygon primitive as box body*
4,1,4,$2,$3,$4,$5,$6,$7,$8,$9,$2,$3,0*
0 Add four circle primitives for the rounded corners*
1,1,$1+$1,$2,$3*
1,1,$1+$1,$4,$5*
1,1,$1+$1,$6,$7*
1,1,$1+$1,$8,$9*
0 Add four rect primitives between the rounded corners*
20,1,$1+$1,$2,$3,$4,$5,0*
20,1,$1+$1,$4,$5,$6,$7,0*
20,1,$1+$1,$6,$7,$8,$9,0*
20,1,$1+$1,$8,$9,$2,$3,0*%
%AMHorizOval*
0 Thick line with rounded ends*
0 $1 width*
0 $2 $3 position (X,Y) of the first rounded end (center of the circle)*
0 $4 $5 position (X,Y) of the second rounded end (center of the circle)*
0 Add line between two ends*
20,1,$1,$2,$3,$4,$5,0*
0 Add two circle primitives to create the rounded ends*
1,1,$1,$2,$3*
1,1,$1,$4,$5*%
%AMRotRect*
0 Rectangle, with rotation*
0 The origin of the aperture is its center*
0 $1 length*
0 $2 width*
0 $3 Rotation angle, in degrees counterclockwise*
0 Add horizontal line*
21,1,$1,$2,0,0,$3*%
G04 Aperture macros list end*
%ADD10C,2.700000*%
%ADD11C,2.500000*%
%ADD12C,2.374900*%
%ADD13C,0.990600*%
%ADD14R,1.700000X1.700000*%
%ADD15C,1.700000*%
%ADD16RotRect,1.700000X1.700000X45.000000*%
%ADD17HorizOval,1.700000X0.000000X0.000000X0.000000X0.000000X0*%
%ADD18RoundRect,0.250000X0.350000X0.625000X-0.350000X0.625000X-0.350000X-0.625000X0.350000X-0.625000X0*%
%ADD19O,1.200000X1.750000*%
%ADD20RotRect,1.700000X1.700000X315.000000*%
%ADD21HorizOval,1.700000X0.000000X0.000000X0.000000X0.000000X0*%
%ADD22C,0.812800*%
%ADD23C,1.397000*%
%ADD24O,1.320800X3.606800*%
%ADD25RotRect,1.700000X1.700000X225.000000*%
%ADD26HorizOval,1.700000X0.000000X0.000000X0.000000X0.000000X0*%
%ADD27C,0.700000*%
%ADD28O,0.900000X1.700000*%
%ADD29O,0.900000X2.400000*%
%ADD30O,1.700000X1.700000*%
%ADD31RotRect,1.700000X1.700000X135.000000*%
%ADD32HorizOval,1.700000X0.000000X0.000000X0.000000X0.000000X0*%
G04 APERTURE END LIST*
D10*
%TO.C,H9*%
X209560660Y-99669087D03*
%TD*%
D11*
%TO.C,*%
X159600000Y-133329999D03*
%TD*%
%TO.C,*%
X100404699Y-122459572D03*
%TD*%
D12*
%TO.C,J7*%
X122550867Y-71917429D03*
D13*
X122999880Y-67876314D03*
X120126198Y-72186837D03*
D12*
X121203829Y-66080263D03*
X118958765Y-68325327D03*
X124795931Y-69672365D03*
D13*
X118689357Y-70749996D03*
%TD*%
D10*
%TO.C,H6*%
X127100000Y-56280001D03*
%TD*%
%TO.C,H10*%
X185519029Y-123710718D03*
%TD*%
D14*
%TO.C,U3*%
X107177500Y-100282500D03*
D15*
X109717500Y-100282500D03*
X112257500Y-100282500D03*
X114797500Y-100282500D03*
X117337500Y-100282500D03*
X119877500Y-100282500D03*
X122417500Y-100282500D03*
X124957500Y-100282500D03*
X124957500Y-87582500D03*
X122417500Y-87582500D03*
X119877500Y-87582500D03*
X117337500Y-87582500D03*
X114797500Y-87582500D03*
X112257500Y-87582500D03*
X109717500Y-87582500D03*
X107177500Y-87582500D03*
%TD*%
D10*
%TO.C,H8*%
X186295301Y-67200428D03*
%TD*%
%TO.C,H3*%
X101062059Y-65843068D03*
%TD*%
D16*
%TO.C,J1*%
X87500000Y-107080000D03*
D17*
X89296051Y-108876051D03*
X91092102Y-110672102D03*
X92888154Y-112468154D03*
%TD*%
D11*
%TO.C,*%
X210336932Y-91242059D03*
%TD*%
%TO.C,*%
X127100000Y-56280001D03*
%TD*%
D10*
%TO.C,H5*%
X161100001Y-56280001D03*
%TD*%
D18*
%TO.C,J8*%
X144500000Y-109280000D03*
D19*
X142500000Y-109280000D03*
%TD*%
D10*
%TO.C,H1*%
X76363068Y-98417941D03*
%TD*%
D20*
%TO.C,J2*%
X92400000Y-76980000D03*
D21*
X90603949Y-78776051D03*
X88807898Y-80572102D03*
X87011846Y-82368154D03*
%TD*%
D10*
%TO.C,H2*%
X100404699Y-122459572D03*
%TD*%
D22*
%TO.C,SW1*%
X179249999Y-137023000D03*
X166749999Y-137023000D03*
X179249999Y-134737000D03*
D23*
X170000000Y-135880000D03*
X172999999Y-135880000D03*
X175999998Y-135880000D03*
D24*
X166749999Y-135880000D03*
X179249999Y-135880000D03*
%TD*%
D11*
%TO.C,*%
X185519029Y-123710718D03*
%TD*%
D25*
%TO.C,J4*%
X199200000Y-82580000D03*
D26*
X197403949Y-80783949D03*
X195607898Y-78987898D03*
X193811846Y-77191846D03*
%TD*%
D11*
%TO.C,*%
X161100001Y-56280001D03*
%TD*%
D10*
%TO.C,H11*%
X159600000Y-133329999D03*
%TD*%
D11*
%TO.C,*%
X125599999Y-133329999D03*
%TD*%
D14*
%TO.C,U2*%
X163177500Y-100282500D03*
D15*
X165717500Y-100282500D03*
X168257500Y-100282500D03*
X170797500Y-100282500D03*
X173337500Y-100282500D03*
X175877500Y-100282500D03*
X178417500Y-100282500D03*
X180957500Y-100282500D03*
X180957500Y-87582500D03*
X178417500Y-87582500D03*
X175877500Y-87582500D03*
X173337500Y-87582500D03*
X170797500Y-87582500D03*
X168257500Y-87582500D03*
X165717500Y-87582500D03*
X163177500Y-87582500D03*
%TD*%
D10*
%TO.C,H12*%
X125599999Y-133329999D03*
%TD*%
%TO.C,H4*%
X77020428Y-89884699D03*
%TD*%
D11*
%TO.C,*%
X209560660Y-99669087D03*
%TD*%
%TO.C,*%
X101062059Y-65843068D03*
%TD*%
D27*
%TO.C,P1*%
X109525000Y-132755000D03*
X110375000Y-132755000D03*
X111225000Y-132755000D03*
X112075000Y-132755000D03*
X112925000Y-132755000D03*
X113775000Y-132755000D03*
X114625000Y-132755000D03*
X115475000Y-132755000D03*
X115475000Y-134105000D03*
X114625000Y-134105000D03*
X113775000Y-134105000D03*
X112925000Y-134105000D03*
X112075000Y-134105000D03*
X111225000Y-134105000D03*
X110375000Y-134105000D03*
X109525000Y-134105000D03*
D28*
X108175000Y-137115000D03*
D29*
X108175000Y-133735000D03*
X116825000Y-133735000D03*
D28*
X116825000Y-137115000D03*
%TD*%
D11*
%TO.C,*%
X186295301Y-67200428D03*
%TD*%
D14*
%TO.C,J3*%
X147100000Y-58030000D03*
D30*
X144560000Y-58030000D03*
X142020000Y-58030000D03*
X139480000Y-58030000D03*
%TD*%
D31*
%TO.C,J5*%
X194181088Y-112573786D03*
D32*
X195977139Y-110777735D03*
X197773190Y-108981684D03*
X199569242Y-107185632D03*
%TD*%
D11*
%TO.C,*%
X77020428Y-89884699D03*
%TD*%
D14*
%TO.C,J6*%
X139600000Y-131580000D03*
D30*
X142140000Y-131580000D03*
X144680000Y-131580000D03*
X147220000Y-131580000D03*
%TD*%
D11*
%TO.C,*%
X76363068Y-98417941D03*
%TD*%
D10*
%TO.C,H7*%
X210336932Y-91242059D03*
%TD*%
M02*
