%TF.GenerationSoftware,KiCad,Pcbnew,(6.0.7)*%
%TF.CreationDate,2024-09-04T15:34:51-05:00*%
%TF.ProjectId,MainBoard,4d61696e-426f-4617-9264-2e6b69636164,rev?*%
%TF.SameCoordinates,Original*%
%TF.FileFunction,Paste,Top*%
%TF.FilePolarity,Positive*%
%FSLAX46Y46*%
G04 Gerber Fmt 4.6, Leading zero omitted, Abs format (unit mm)*
G04 Created by KiCad (PCBNEW (6.0.7)) date 2024-09-04 15:34:51*
%MOMM*%
%LPD*%
G01*
G04 APERTURE LIST*
G04 Aperture macros list*
%AMRoundRect*
0 Rectangle with rounded corners*
0 $1 Rounding radius*
0 $2 $3 $4 $5 $6 $7 $8 $9 X,Y pos of 4 corners*
0 Add a 4 corners polygon primitive as box body*
4,1,4,$2,$3,$4,$5,$6,$7,$8,$9,$2,$3,0*
0 Add four circle primitives for the rounded corners*
1,1,$1+$1,$2,$3*
1,1,$1+$1,$4,$5*
1,1,$1+$1,$6,$7*
1,1,$1+$1,$8,$9*
0 Add four rect primitives between the rounded corners*
20,1,$1+$1,$2,$3,$4,$5,0*
20,1,$1+$1,$4,$5,$6,$7,0*
20,1,$1+$1,$6,$7,$8,$9,0*
20,1,$1+$1,$8,$9,$2,$3,0*%
%AMFreePoly0*
4,1,14,0.354215,0.088284,0.450784,-0.008285,0.462500,-0.036569,0.462499,-0.060000,0.450784,-0.088284,0.422500,-0.100000,-0.422500,-0.100000,-0.450784,-0.088284,-0.462499,-0.060000,-0.462499,0.060000,-0.450784,0.088284,-0.422500,0.100000,0.325931,0.100000,0.354215,0.088284,0.354215,0.088284,$1*%
%AMFreePoly1*
4,1,14,0.450784,0.088284,0.462499,0.060000,0.462500,0.036569,0.450784,0.008285,0.354215,-0.088284,0.325931,-0.100000,-0.422500,-0.100000,-0.450784,-0.088284,-0.462499,-0.060000,-0.462499,0.060000,-0.450784,0.088284,-0.422500,0.100000,0.422500,0.100000,0.450784,0.088284,0.450784,0.088284,$1*%
%AMFreePoly2*
4,1,14,0.088284,0.450784,0.100000,0.422500,0.100000,-0.422500,0.088284,-0.450784,0.060000,-0.462499,-0.060000,-0.462499,-0.088284,-0.450784,-0.100000,-0.422500,-0.100000,0.325931,-0.088284,0.354215,0.008285,0.450784,0.036569,0.462500,0.060000,0.462499,0.088284,0.450784,0.088284,0.450784,$1*%
%AMFreePoly3*
4,1,14,-0.008285,0.450784,0.088284,0.354215,0.100000,0.325931,0.100000,-0.422500,0.088284,-0.450784,0.060000,-0.462499,-0.060000,-0.462499,-0.088284,-0.450784,-0.100000,-0.422500,-0.100000,0.422500,-0.088284,0.450784,-0.060000,0.462499,-0.036569,0.462500,-0.008285,0.450784,-0.008285,0.450784,$1*%
%AMFreePoly4*
4,1,14,0.450784,0.088284,0.462499,0.060000,0.462499,-0.060000,0.450784,-0.088284,0.422500,-0.100000,-0.325931,-0.100000,-0.354215,-0.088284,-0.450784,0.008285,-0.462500,0.036569,-0.462499,0.060000,-0.450784,0.088284,-0.422500,0.100000,0.422500,0.100000,0.450784,0.088284,0.450784,0.088284,$1*%
%AMFreePoly5*
4,1,14,0.450784,0.088284,0.462499,0.060000,0.462499,-0.060000,0.450784,-0.088284,0.422500,-0.100000,-0.422500,-0.100000,-0.450784,-0.088284,-0.462499,-0.060000,-0.462500,-0.036569,-0.450784,-0.008285,-0.354215,0.088284,-0.325931,0.100000,0.422500,0.100000,0.450784,0.088284,0.450784,0.088284,$1*%
%AMFreePoly6*
4,1,14,0.088284,0.450784,0.100000,0.422500,0.100000,-0.325931,0.088284,-0.354215,-0.008285,-0.450784,-0.036569,-0.462500,-0.060000,-0.462499,-0.088284,-0.450784,-0.100000,-0.422500,-0.100000,0.422500,-0.088284,0.450784,-0.060000,0.462499,0.060000,0.462499,0.088284,0.450784,0.088284,0.450784,$1*%
%AMFreePoly7*
4,1,14,0.088284,0.450784,0.100000,0.422500,0.100000,-0.422500,0.088284,-0.450784,0.060000,-0.462499,0.036569,-0.462500,0.008285,-0.450784,-0.088284,-0.354215,-0.100000,-0.325931,-0.100000,0.422500,-0.088284,0.450784,-0.060000,0.462499,0.060000,0.462499,0.088284,0.450784,0.088284,0.450784,$1*%
G04 Aperture macros list end*
%ADD10RoundRect,0.135000X0.185000X-0.135000X0.185000X0.135000X-0.185000X0.135000X-0.185000X-0.135000X0*%
%ADD11RoundRect,0.135000X-0.185000X0.135000X-0.185000X-0.135000X0.185000X-0.135000X0.185000X0.135000X0*%
%ADD12R,0.750000X0.650000*%
%ADD13R,0.500000X0.250000*%
%ADD14RoundRect,0.135000X-0.135000X-0.185000X0.135000X-0.185000X0.135000X0.185000X-0.135000X0.185000X0*%
%ADD15RoundRect,0.150000X-0.512500X-0.150000X0.512500X-0.150000X0.512500X0.150000X-0.512500X0.150000X0*%
%ADD16RoundRect,0.218750X-0.218750X-0.256250X0.218750X-0.256250X0.218750X0.256250X-0.218750X0.256250X0*%
%ADD17RoundRect,0.135000X-0.226274X-0.035355X-0.035355X-0.226274X0.226274X0.035355X0.035355X0.226274X0*%
%ADD18R,0.900000X0.800000*%
%ADD19RoundRect,0.225000X-0.250000X0.225000X-0.250000X-0.225000X0.250000X-0.225000X0.250000X0.225000X0*%
%ADD20FreePoly0,315.000000*%
%ADD21RoundRect,0.050000X-0.327037X0.256326X0.256326X-0.327037X0.327037X-0.256326X-0.256326X0.327037X0*%
%ADD22FreePoly1,315.000000*%
%ADD23FreePoly2,315.000000*%
%ADD24RoundRect,0.050000X-0.327037X-0.256326X-0.256326X-0.327037X0.327037X0.256326X0.256326X0.327037X0*%
%ADD25FreePoly3,315.000000*%
%ADD26FreePoly4,315.000000*%
%ADD27FreePoly5,315.000000*%
%ADD28FreePoly6,315.000000*%
%ADD29FreePoly7,315.000000*%
%ADD30RoundRect,0.218750X-0.381250X0.218750X-0.381250X-0.218750X0.381250X-0.218750X0.381250X0.218750X0*%
%ADD31RoundRect,0.225000X0.225000X0.250000X-0.225000X0.250000X-0.225000X-0.250000X0.225000X-0.250000X0*%
%ADD32RoundRect,0.225000X-0.225000X-0.250000X0.225000X-0.250000X0.225000X0.250000X-0.225000X0.250000X0*%
%ADD33RoundRect,0.135000X-0.035355X0.226274X-0.226274X0.035355X0.035355X-0.226274X0.226274X-0.035355X0*%
%ADD34RoundRect,0.135000X0.135000X0.185000X-0.135000X0.185000X-0.135000X-0.185000X0.135000X-0.185000X0*%
%ADD35RoundRect,0.140000X-0.021213X0.219203X-0.219203X0.021213X0.021213X-0.219203X0.219203X-0.021213X0*%
G04 APERTURE END LIST*
D10*
%TO.C,R15*%
X111387500Y-121990000D03*
X111387500Y-120970000D03*
%TD*%
D11*
%TO.C,R5*%
X176000000Y-107770000D03*
X176000000Y-108790000D03*
%TD*%
D12*
%TO.C,U5*%
X174750000Y-127380000D03*
X174750000Y-128180000D03*
D13*
X173800000Y-127030000D03*
X173800000Y-127530000D03*
X173800000Y-128030000D03*
X173800000Y-128530000D03*
X175700000Y-128530000D03*
X175700000Y-128030000D03*
X175700000Y-127530000D03*
X175700000Y-127030000D03*
%TD*%
D14*
%TO.C,R10*%
X106490000Y-106030000D03*
X107510000Y-106030000D03*
%TD*%
D15*
%TO.C,U4*%
X111250000Y-123280000D03*
X111250000Y-124230000D03*
X111250000Y-125180000D03*
X113525000Y-125180000D03*
X113525000Y-123280000D03*
%TD*%
D11*
%TO.C,R12*%
X112250000Y-84020000D03*
X112250000Y-85040000D03*
%TD*%
D16*
%TO.C,D1*%
X112850000Y-121230000D03*
X114425000Y-121230000D03*
%TD*%
D11*
%TO.C,R3*%
X172000000Y-107770000D03*
X172000000Y-108790000D03*
%TD*%
D17*
%TO.C,R1*%
X110952549Y-72230324D03*
X111673797Y-72951572D03*
%TD*%
D18*
%TO.C,Q1*%
X171950000Y-105980000D03*
X171950000Y-104080000D03*
X169550000Y-105030000D03*
%TD*%
D14*
%TO.C,R11*%
X106740000Y-103280000D03*
X107760000Y-103280000D03*
%TD*%
%TO.C,R9*%
X103490000Y-100280000D03*
X104510000Y-100280000D03*
%TD*%
D18*
%TO.C,Q3*%
X175950000Y-105980000D03*
X175950000Y-104080000D03*
X173550000Y-105030000D03*
%TD*%
D19*
%TO.C,C5*%
X178300000Y-130105000D03*
X178300000Y-131655000D03*
%TD*%
D20*
%TO.C,U1*%
X110084575Y-74233204D03*
D21*
X109801732Y-74516047D03*
X109518889Y-74798889D03*
X109236047Y-75081732D03*
D22*
X108953204Y-75364575D03*
D23*
X108953204Y-76195425D03*
D24*
X109236047Y-76478268D03*
X109518889Y-76761111D03*
X109801732Y-77043953D03*
D25*
X110084575Y-77326796D03*
D26*
X110915425Y-77326796D03*
D21*
X111198268Y-77043953D03*
X111481111Y-76761111D03*
X111763953Y-76478268D03*
D27*
X112046796Y-76195425D03*
D28*
X112046796Y-75364575D03*
D24*
X111763953Y-75081732D03*
X111481111Y-74798889D03*
X111198268Y-74516047D03*
D29*
X110915425Y-74233204D03*
%TD*%
D11*
%TO.C,R19*%
X144250000Y-112220000D03*
X144250000Y-113240000D03*
%TD*%
%TO.C,R16*%
X175650000Y-124890000D03*
X175650000Y-125910000D03*
%TD*%
D14*
%TO.C,R18*%
X140240000Y-112230000D03*
X141260000Y-112230000D03*
%TD*%
D30*
%TO.C,L1*%
X177650000Y-126587500D03*
X177650000Y-128712500D03*
%TD*%
D19*
%TO.C,C3*%
X111137500Y-126955000D03*
X111137500Y-128505000D03*
%TD*%
D11*
%TO.C,R13*%
X107250000Y-83770000D03*
X107250000Y-84790000D03*
%TD*%
%TO.C,R7*%
X109750000Y-84020000D03*
X109750000Y-85040000D03*
%TD*%
%TO.C,R8*%
X114750000Y-84029999D03*
X114750000Y-85049999D03*
%TD*%
%TO.C,R20*%
X142500000Y-112220000D03*
X142500000Y-113240000D03*
%TD*%
D18*
%TO.C,Q2*%
X113450000Y-105980000D03*
X113450000Y-104080000D03*
X111050000Y-105030000D03*
%TD*%
D31*
%TO.C,C4*%
X172174999Y-127650000D03*
X170624999Y-127650000D03*
%TD*%
D11*
%TO.C,R4*%
X113500000Y-107520000D03*
X113500000Y-108540000D03*
%TD*%
D18*
%TO.C,Q4*%
X117950000Y-105980000D03*
X117950000Y-104080000D03*
X115550000Y-105030000D03*
%TD*%
D32*
%TO.C,C2*%
X115362500Y-125230000D03*
X116912500Y-125230000D03*
%TD*%
D33*
%TO.C,R2*%
X113132205Y-72953341D03*
X112410957Y-73674589D03*
%TD*%
D19*
%TO.C,C6*%
X176800000Y-130125000D03*
X176800000Y-131675000D03*
%TD*%
D34*
%TO.C,R17*%
X146510000Y-112230000D03*
X145490000Y-112230000D03*
%TD*%
D11*
%TO.C,R6*%
X118000000Y-107520000D03*
X118000000Y-108540000D03*
%TD*%
D14*
%TO.C,R14*%
X115127500Y-123230000D03*
X116147500Y-123230000D03*
%TD*%
D35*
%TO.C,C1*%
X109015076Y-73474832D03*
X108336254Y-74153654D03*
%TD*%
M02*
